<svg xmlns="http://www.w3.org/2000/svg" xmlns:xlink="http://www.w3.org/1999/xlink" viewBox="0 0 1024 1024"><defs><linearGradient id="a" x1="63.71" y1="659.34" x2="563.24" y2="659.34" gradientUnits="userSpaceOnUse"><stop offset="0" stop-color="#832fd9"/><stop offset="1" stop-color="#cb2c6c"/></linearGradient><linearGradient id="b" x1="313.59" y1="456.78" x2="726.8" y2="456.78" gradientUnits="userSpaceOnUse"><stop offset="0" stop-color="#883cd9"/><stop offset="1" stop-color="#fd2333"/></linearGradient><linearGradient id="d" x1="260.01" y1="653.15" x2="903.21" y2="653.15" gradientUnits="userSpaceOnUse"><stop offset="0" stop-color="#a42fc6"/><stop offset="1" stop-color="#fa3942"/></linearGradient><linearGradient id="e" x1="310.09" y1="342.14" x2="962.86" y2="342.14" gradientUnits="userSpaceOnUse"><stop offset="0" stop-color="#9538d2"/><stop offset="1" stop-color="#fc3242"/></linearGradient></defs><circle cx="209.61" cy="292.02" r="60.51" style="fill:#832fd9"/><path d="M186.48 402.98c-6.7 28.57-16.08 107.93-15.97 116.94 0 .35-.22.64-.54.77-15.83 5.99-71.99 62.11-79.04 69.19-.43.44-1.24.28-1.36-.32-4.47-21.41 73.15-174.6 95.75-187.49.6-.34 1.33.23 1.17.91Z" style="fill:#832fd9"/><path d="M304.66 506.19S43.21 558.96 65 763.55c51.4 144.68 521.19-73.53 497.36-114.38-41.46 19.09-297.65 133.29-374.03 29.56a30.76 30.76 0 0 1-5.48-23.91c18.8-100.8 137.2-136.52 121.81-148.63" style="fill:url(#a)"/><path d="m630.94 636.47-102.45-42.88c-4.72-1.49-5.36-1.28-10.72.26l-106.21 59.49c-12.35 9.23-29.59-9.53-25.02-24.26l19.19-123.83c-.17-.68.72-1.28-.04-6.13L324.5 433.5c-12.59-8.89-23.49-38.55 22.98-42.64l104.68-18.38c6.89-.09 8.43-4.65 10.47-11.23l34.72-93.45c4.57-14.72 32.83-12.55 37.79 2.04L581.1 371.2c5.51 4.01 17.11 4.43 24 4.34l103.4 16.09c15.41-.21 27.57 16.85 8.68 37.79l-79.8 72.1c-2.67 4.66-3.23 4.66-2.67 10.47l25.02 95.64c5.11 24.26-16.19 37.73-28.78 28.84Z" style="fill:url(#b)"/><path d="M261.11 827.02c-1.48.27-1.46 2.44 0 2.8 29.46 13.61 124.19 59.82 284.53 23.05 213.57-51.83 352.98-241.79 357.57-413.36-61.79 63.32-43.86 70.46-165.45 208.34-48 43.4-188.94 119.49-312 124.6-61.28 13.79-84.26 39.92-164.66 54.57Z" style="fill:url(#d)"/><path d="M709.83 534.95c-.83.65-.2 1.98.84 1.75 83.55-18.35 156.17-96.33 186.25-128.97 43.44-45.96 85.97-140.18 55.77-191.6a.7.7 0 0 0-.13-.16c-29.85-27.85-54.51-60.94-196.87-36.97-4.12.69-8.35.14-12.14-1.61l-.09-.03c-26.14-6.65-97.49-47.35-231.1-21.07-128.32 25.24-181.88 69.3-201.76 85.22-1.19.95-.14 2.83 1.3 2.34 131.84-45.41 209.51-50.93 256.05-47.56 91.23 4.09 166.3 50.42 181.79 69.79 48.55 57.61 51.18 108.47 56.51 127.66 1.65 5.93 9.45 7.34 13.07 2.36 65.25-89.72 17.23-155.87-27.73-187.81-.74-.52-.44-1.66.46-1.77 38.81-4.6 88.32 7.89 99.65 27.55 28.91 44.21-.62 85.02-6.11 110.56-.01.05-.03.1-.05.15-14.02 28.41-49 72.46-70.77 94.06-18.69 18.55-80.86 77.18-104.93 96.1Z" style="fill:url(#e)"/></svg>