<svg xmlns="http://www.w3.org/2000/svg" viewBox="0 0 862.98 280.51"><defs><linearGradient id="a" x1="-521.59" y1="-494.06" x2="-384.75" y2="-494.06" gradientTransform="matrix(1 0 0 -1 539.04 -313.45)" gradientUnits="userSpaceOnUse"><stop offset="0" stop-color="#832fd9"/><stop offset="1" stop-color="#cb2c6c"/></linearGradient><linearGradient id="b" x1="-453.13" y1="-438.58" x2="-339.94" y2="-438.58" gradientTransform="matrix(1 0 0 -1 539.04 -313.45)" gradientUnits="userSpaceOnUse"><stop offset="0" stop-color="#883cd9"/><stop offset="1" stop-color="#fd2333"/></linearGradient><linearGradient id="c" x1="-467.81" y1="-492.37" x2="-291.62" y2="-492.37" gradientTransform="matrix(1 0 0 -1 539.04 -313.45)" gradientUnits="userSpaceOnUse"><stop offset="0" stop-color="#a42fc6"/><stop offset="1" stop-color="#fa3942"/></linearGradient><linearGradient id="d" x1="-454.1" y1="-407.17" x2="-275.28" y2="-407.17" gradientTransform="matrix(1 0 0 -1 539.04 -313.45)" gradientUnits="userSpaceOnUse"><stop offset="0" stop-color="#9538d2"/><stop offset="1" stop-color="#fc3242"/></linearGradient><linearGradient id="f" x1="412.67" y1="102.37" x2="524.1" y2="166.71" gradientUnits="userSpaceOnUse"><stop offset=".51" stop-color="#8a31dc"/><stop offset="1" stop-color="#b627c1"/></linearGradient><linearGradient id="g" x1="550.14" y1="44.79" x2="550.14" y2="189.37" gradientUnits="userSpaceOnUse"><stop offset=".23" stop-color="#8c32d9"/><stop offset="1" stop-color="#de25a1"/></linearGradient><linearGradient id="h" x1="577.87" y1="116.5" x2="669.97" y2="159.45" gradientUnits="userSpaceOnUse"><stop offset=".33" stop-color="#df26a1"/><stop offset="1" stop-color="#f82869"/></linearGradient><linearGradient id="i" x1="682.96" y1="97.59" x2="774.17" y2="188.8" gradientUnits="userSpaceOnUse"><stop offset=".24" stop-color="#f92a60"/><stop offset="1" stop-color="#fc2b3a"/></linearGradient></defs><circle cx="57.42" cy="79.99" r="16.58" style="fill:#832fd9"/><path d="M51.08 110.39c-1.84 7.83-4.4 29.57-4.37 32.03 0 .1-.06.18-.15.21-4.34 1.64-19.72 17.01-21.65 18.95-.12.12-.34.08-.37-.09-1.22-5.86 20.04-47.83 26.23-51.36.16-.09.36.06.32.25Z" style="fill:#832fd9"/><path d="M83.46 138.66s-71.62 14.46-65.65 70.5c14.08 39.63 142.77-20.14 136.24-31.33-11.36 5.23-81.54 36.51-102.46 8.1a8.4 8.4 0 0 1-1.5-6.55c5.15-27.61 37.58-37.4 33.37-40.72" style="fill:url(#a)"/><path d="m172.84 174.35-28.06-11.75c-1.29-.41-1.47-.35-2.94.07l-29.09 16.3c-3.38 2.53-8.11-2.61-6.85-6.65l5.26-33.92c-.05-.19.2-.35-.01-1.68l-22.24-17.98c-3.45-2.44-6.43-10.56 6.3-11.68l28.68-5.03c1.89-.02 2.31-1.27 2.87-3.08l9.51-25.6c1.25-4.03 8.99-3.44 10.35.56l12.59 27.77c1.51 1.1 4.69 1.21 6.57 1.19l28.33 4.41c4.22-.06 7.55 4.62 2.38 10.35l-21.86 19.75c-.73 1.28-.88 1.28-.73 2.87l6.85 26.2c1.4 6.65-4.44 10.34-7.88 7.9Z" style="fill:url(#b)"/><path d="M71.53 226.55c-.41.07-.4.67 0 .77 8.07 3.73 34.02 16.39 77.94 6.31 58.5-14.2 96.69-66.24 97.95-113.23-16.93 17.35-12.01 19.3-45.32 57.07-13.15 11.89-51.76 32.73-85.47 34.13-16.79 3.78-23.08 10.94-45.11 14.95Z" style="fill:url(#c)"/><path d="M194.45 146.54c-.23.18-.05.54.23.48 22.89-5.03 42.78-26.39 51.02-35.33 11.9-12.59 23.55-38.4 15.28-52.49 0-.02-.02-.03-.04-.04-8.18-7.63-14.93-16.69-53.93-10.13a5.7 5.7 0 0 1-3.33-.44h-.02c-7.16-1.83-26.71-12.98-63.31-5.78-35.15 6.91-49.82 18.98-55.27 23.34-.33.26-.04.78.36.64 36.12-12.44 57.39-13.95 70.14-13.03 24.99 1.12 45.56 13.81 49.8 19.12 13.3 15.78 14.02 29.71 15.48 34.97.45 1.62 2.59 2.01 3.58.65 17.87-24.58 4.72-42.7-7.6-51.45-.2-.14-.12-.45.13-.48 10.63-1.26 24.19 2.16 27.3 7.55 7.92 12.11-.17 23.29-1.67 30.29 0 .01 0 .03-.01.04-3.84 7.78-13.42 19.85-19.39 25.77-5.12 5.08-22.15 21.14-28.74 26.33Z" style="fill:url(#d)"/><path d="M305.34 224.15V89.36h25.11v20.25l-.51 29.46 1.69 29.28v55.79h-26.29Zm53.59-34.25c-7.64 0-14.33-1.84-20.06-5.52s-10.2-9.3-13.4-16.85-4.8-17.09-4.8-28.63 1.52-21.24 4.55-28.72c3.03-7.49 7.42-13.07 13.15-16.76 5.73-3.68 12.58-5.52 20.56-5.52 8.54 0 16.21 2.12 23.01 6.35s12.19 10.16 16.18 17.77 5.98 16.57 5.98 26.88-2 19.46-5.98 27.07c-3.99 7.61-9.38 13.5-16.18 17.68-6.8 4.17-14.47 6.26-23.01 6.26Zm-4.55-23.57c4.38 0 8.29-1.1 11.71-3.31 3.43-2.21 6.18-5.37 8.26-9.48q3.12-6.165 3.12-14.64c0-8.475-1.04-10.68-3.12-14.73s-4.83-7.18-8.26-9.39-7.33-3.31-11.71-3.31-8.32 1.1-11.8 3.31-6.24 5.34-8.26 9.39q-3.03 6.075-3.03 14.73c0 8.655 1.01 10.53 3.03 14.64s4.77 7.27 8.26 9.48c3.48 2.21 7.42 3.31 11.8 3.31" style="fill:#8a31dc"/><path d="M458.16 190.1c-7.55 0-14.29-1.57-20.21-4.72s-10.52-7.96-13.78-14.43c-3.27-6.47-4.91-14.74-4.91-24.78v-55.2h26.39v51.02c0 8.11 1.61 14.07 4.82 17.88s7.75 5.72 13.62 5.72c4.06 0 7.67-.94 10.83-2.81 3.15-1.88 5.64-4.78 7.44-8.71s2.71-8.87 2.71-14.8v-48.3h26.39v97.68h-25.03v-26.87l4.57 7.81c-3.04 6.78-7.53 11.89-13.45 15.34s-12.38 5.17-19.37 5.17Z" style="fill:url(#f)"/><path d="M537.26 189.37V44.79h25.76v144.58z" style="fill:url(#g)"/><path d="M620.88 189.09c-8.55 0-16.77-1.02-24.64-3.07-7.88-2.04-14.1-4.62-18.69-7.72l9.67-20.83c4.58 2.85 10.01 5.18 16.27 6.97 6.26 1.8 12.43 2.7 18.5 2.7 6.69 0 11.44-.8 14.23-2.42 2.79-1.61 4.18-3.84 4.18-6.7 0-2.35-1.09-4.12-3.25-5.3-2.17-1.18-5.05-2.08-8.65-2.7s-7.53-1.24-11.81-1.86-8.59-1.46-12.92-2.51c-4.34-1.05-8.31-2.63-11.9-4.74-3.6-2.11-6.48-4.96-8.65-8.56-2.17-3.59-3.25-8.24-3.25-13.95q0-9.48 5.49-16.74c3.66-4.84 8.96-8.65 15.9-11.44s15.25-4.18 24.92-4.18c6.82 0 13.76.74 20.83 2.23s12.95 3.66 17.67 6.51l-9.67 20.64c-4.83-2.85-9.7-4.8-14.6-5.86-4.9-1.05-9.64-1.58-14.23-1.58-6.45 0-11.16.87-14.13 2.6-2.98 1.74-4.46 3.97-4.46 6.69 0 2.48 1.08 4.34 3.25 5.58s5.05 2.23 8.65 2.98c3.59.74 7.53 1.4 11.81 1.95 4.28.56 8.58 1.4 12.92 2.51 4.34 1.12 8.28 2.7 11.81 4.74s6.42 4.83 8.65 8.37c2.23 3.53 3.35 8.15 3.35 13.86 0 6.2-1.86 11.69-5.58 16.46s-9.08 8.53-16.09 11.25c-7.01 2.73-15.53 4.09-25.57 4.09Z" style="fill:url(#h)"/><path d="M715.94 190.35c-7.88 0-14.64-1.35-20.27-4.03-5.63-2.69-9.95-6.35-12.95-10.98s-4.5-9.82-4.5-15.58 1.47-11.26 4.41-15.76 7.6-8.04 13.98-10.6 14.7-3.85 24.96-3.85h26.84v17.08h-23.65c-6.88 0-11.61 1.13-14.17 3.38-2.57 2.25-3.85 5.07-3.85 8.45 0 3.75 1.47 6.73 4.41 8.92s6.97 3.28 12.11 3.28 9.26-1.16 13.14-3.47 6.69-5.72 8.45-10.23l4.5 13.51c-2.13 6.51-6 11.45-11.64 14.83-5.63 3.38-12.89 5.07-21.77 5.07Zm30.78-1.5v-19.71l-1.88-4.32v-35.28c0-6.25-1.91-11.13-5.72-14.64q-5.73-5.25-17.55-5.25c-5.38 0-10.67.84-15.86 2.53s-9.6 3.97-13.23 6.85l-10.51-20.46c5.5-3.88 12.13-6.88 19.89-9.01a89 89 0 0 1 23.65-3.19q23.085 0 35.85 10.89c8.51 7.26 12.76 18.58 12.76 33.97v57.62z" style="fill:url(#i)"/><path d="M798.06 188.69V89.88h28.96v27.92l-4.08-8.08c3.11-6.98 8.1-12.27 14.97-15.89 6.87-3.61 15.22-5.42 25.07-5.42v26.45c-1.3-.12-2.46-.21-3.5-.28q-1.56-.09-3.3-.09c-8.29 0-15 2.24-20.12 6.7q-7.68 6.705-7.68 20.85v46.65z" style="fill:#ff2f47"/></svg>